<svg xmlns:xlink="http://www.w3.org/1999/xlink" xmlns="http://www.w3.org/2000/svg" viewBox="0 0 48 48" fill="#FFF" width="172"  height="172" ><path d="M 14.5 8 C 12.585045 8 11 9.5850452 11 11.5 L 11 13.482422 L 6.2011719 16.337891 C 4.8383234 17.148112 4 18.620613 4 20.205078 L 4 35.5 C 4 39.071938 6.9280619 42 10.5 42 L 37.5 42 C 41.071938 42 44 39.071938 44 35.5 L 44 20.207031 C 44 18.621621 43.162068 17.150026 41.800781 16.339844 A 1.50015 1.50015 0 0 0 41.798828 16.337891 L 37 13.484375 L 37 11.5 C 37 9.5850452 35.414955 8 33.5 8 L 14.5 8 z M 14.5 11 L 33.5 11 C 33.795045 11 34 11.204955 34 11.5 L 34 22.966797 L 24 27.832031 L 14 22.966797 L 14 14.568359 A 1.50015 1.50015 0 0 0 14 14.082031 L 14 11.5 C 14 11.204955 14.204955 11 14.5 11 z M 11 16.974609 L 11 21.507812 L 7.1289062 19.625 C 7.2513989 19.335647 7.4536236 19.082924 7.734375 18.916016 L 11 16.974609 z M 37 16.976562 L 40.265625 18.917969 C 40.544808 19.08459 40.746215 19.336598 40.869141 19.625 L 37 21.507812 L 37 16.976562 z M 7 22.898438 L 23.34375 30.849609 A 1.50015 1.50015 0 0 0 24.65625 30.849609 L 41 22.898438 L 41 35.5 C 41 37.450062 39.450062 39 37.5 39 L 10.5 39 C 8.5499381 39 7 37.450062 7 35.5 L 7 22.898438 z"></path></svg>